<svg width="27" height="26" version="1.1" viewBox="0 0 27 26" xmlns="http://www.w3.org/2000/svg">
 <path d="m14.814 9.4332 3.7985 2.195s0.8906 0.5748 0.8906 1.4371c0 0.1046 0 0.2091-0.0261 0.2875-0.1048 0.3919-0.3406 0.7316-0.7074 0.9407l-3.8508 2.2211-0.0262 0.0261h-0.0262l-3.7199 2.1427c-0.131 0.0784-0.6287 0.2875-0.8645 0.2875-0.41915 0-0.7859-0.1568-1.0741-0.4442-0.26197-0.2614-0.44534-0.6533-0.44534-1.0714v-8.989c0.01228-0.049 0.0188-0.09801 0.02497-0.14433 0.00698-0.05246 0.0135-0.10147 0.02742-0.1431 0.01568-0.03912 0.02902-0.07824 0.04212-0.11665 0.03065-0.0899 0.06-0.17595 0.11506-0.24918 0.20957-0.36583 0.55012-0.60101 0.91687-0.70553 0.36676-0.10452 0.78586-0.05226 1.1527 0.15678l3.7723 2.1688zm-0.5239 5.9316 3.7984-2.1949c0.0524-0.0262 0.131-0.1307 0.131-0.2352 0-0.0784-0.1048-0.1568-0.1572-0.1829l-3.7984-2.195h-0.0262s-0.0262 0-0.0524-0.0261l-3.7199-2.1427c-0.0131-0.01306-0.0262-0.0196-0.0393-0.02613s-0.0262-0.01306-0.0393-0.02613h-0.131c-0.0131 0.01307-0.0328 0.02613-0.0524 0.0392-0.0196 0.01306-0.0393 0.02613-0.0524 0.03919 0 0.02613-0.0262 0.05226-0.0262 0.05226-0.0262 0-0.0262 0.02613-0.0262 0.02613v8.9105c0 0.0523 0.0262 0.1307 0.0524 0.1568 0.0524 0.0262 0.1048 0.0523 0.1572 0.0523s0.1834-0.0523 0.2096-0.0784l3.7199-2.1427s0.0262-0.0262 0.0524-0.0262z" clip-rule="evenodd" fill="#FFAA1A" fill-rule="evenodd" style="fill:#919191"/>
 <path d="m13.032 0c3.327 0 6.6539 1.2804 9.1688 3.8151 2.5411 2.5347 3.7985 5.8533 3.7985 9.1718 0 3.3186-1.2574 6.6372-3.7985 9.1719-2.541 2.5347-5.868 3.7889-9.195 3.7889-3.3269 0-6.6539-1.2542-9.1949-3.7889-2.541-2.5347-3.7985-5.8533-3.7985-9.1719 0-3.3186 1.2836-6.6372 3.8247-9.198 2.5411-2.5347 5.868-3.7889 9.1949-3.7889zm0 24.641c2.9864 0 5.9728-1.1497 8.2519-3.4231 2.3053-2.2734 3.4318-5.2523 3.4318-8.2312s-1.1527-5.9578-3.4318-8.2311-5.2655-3.4231-8.2519-3.4231-5.9728 1.1498-8.2518 3.4231c-2.2791 2.2734-3.4317 5.2522-3.4317 8.2311s1.1264 5.9578 3.4317 8.2312c2.2791 2.2734 5.2654 3.4231 8.2518 3.4231z" clip-rule="evenodd" fill="#FFAA1A" fill-rule="evenodd" style="fill:#919191"/>
</svg>
